<svg xmlns="http://www.w3.org/2000/svg" viewBox="0 0 128 128" role="img" aria-labelledby="title" shape-rendering="crispEdges">
  <title id="title">Latte</title>
  <ellipse cx="63" cy="108" rx="38" ry="8" fill="#2d2118" opacity=".18"/>
  <path d="M28 49h60v35c0 16-11 25-30 25S28 100 28 84V49z" fill="#d6efe8" stroke="#26323e" stroke-width="6"/>
  <path d="M88 59h10c11 0 17 7 17 17 0 11-7 18-20 18h-7V81h8c5 0 8-2 8-6 0-5-3-7-8-7h-8V59z" fill="#d6efe8" stroke="#26323e" stroke-width="6"/>
  <rect x="35" y="48" width="46" height="18" fill="#c98b52"/>
  <rect x="41" y="52" width="34" height="10" fill="#fff9e6"/>
  <path d="M58 55c-8 0-13 4-13 8 0 6 8 10 16 10s17-4 17-10c0-4-5-8-13-8 5 3 6 7 0 10-8-3-10-7-7-10z" fill="#fff3d7" stroke="#6e4027" stroke-width="3"/>
  <rect x="39" y="76" width="41" height="8" fill="#8bc8bb" opacity=".55"/>
  <path d="M46 18v18M64 14v19M81 19v17" fill="none" stroke="#8f643f" stroke-width="6" stroke-linecap="round"/>
</svg>
