<svg xmlns="http://www.w3.org/2000/svg" viewBox="0 0 128 128" role="img" aria-labelledby="title" shape-rendering="crispEdges">
  <title id="title">Pixel house coffee</title>
  <rect x="30" y="106" width="62" height="8" fill="#2b1d14" opacity=".28"/>
  <rect x="36" y="48" width="46" height="48" fill="#f2dfbd"/>
  <rect x="30" y="54" width="6" height="34" fill="#4b321f"/>
  <rect x="82" y="54" width="6" height="42" fill="#4b321f"/>
  <rect x="36" y="90" width="46" height="6" fill="#4b321f"/>
  <rect x="36" y="48" width="46" height="8" fill="#4b321f"/>
  <rect x="42" y="56" width="34" height="12" fill="#5c3521"/>
  <rect x="90" y="58" width="16" height="8" fill="#4b321f"/>
  <rect x="104" y="66" width="8" height="18" fill="#4b321f"/>
  <rect x="90" y="84" width="16" height="8" fill="#4b321f"/>
  <rect x="92" y="66" width="12" height="18" fill="#f2dfbd"/>
  <rect x="46" y="75" width="22" height="6" fill="#d5ad70"/>
  <rect x="48" y="84" width="18" height="5" fill="#d5ad70"/>
  <rect x="45" y="24" width="6" height="14" fill="#8a6a46"/>
  <rect x="61" y="18" width="6" height="17" fill="#8a6a46"/>
  <rect x="78" y="26" width="6" height="12" fill="#8a6a46"/>
</svg>
